<?xml version="1.0" standalone="no"?>
<!DOCTYPE svg PUBLIC "-//W3C//DTD SVG 20010904//EN"
 "http://www.w3.org/TR/2001/REC-SVG-20010904/DTD/svg10.dtd">
<svg version="1.0" xmlns="http://www.w3.org/2000/svg"
 width="225.000000pt" height="225.000000pt" viewBox="0 0 225.000000 225.000000"
 preserveAspectRatio="xMidYMid meet">
<metadata>
Created by potrace 1.11, written by Peter Selinger 2001-2013
</metadata>
<g transform="translate(0.000000,225.000000) scale(0.100000,-0.100000)"
fill="#000000" stroke="none">
<path d="M900 2111 c-365 -79 -655 -359 -757 -733 -14 -49 -18 -103 -18 -238
0 -152 3 -186 23 -259 94 -342 353 -606 698 -710 174 -53 388 -52 569 0 87 26
207 83 260 124 22 17 52 38 66 47 44 28 159 149 198 208 20 30 40 58 46 62 5
4 6 8 1 8 -5 0 -2 8 6 18 17 19 52 93 50 105 -1 4 2 7 8 7 5 0 10 8 10 18 0
10 8 45 19 78 40 126 50 266 30 411 -12 94 -49 233 -61 233 -4 0 -8 6 -8 13
-1 14 -45 105 -80 162 -120 200 -342 363 -590 435 -108 32 -350 37 -470 11z
m465 -86 c110 -25 195 -56 188 -68 -3 -6 -1 -7 5 -3 7 4 19 3 29 -2 14 -8 12
-12 -13 -25 -32 -16 -84 -28 -143 -32 -20 -2 -92 -8 -161 -14 -69 -6 -177 -8
-240 -5 -63 4 -134 6 -157 5 -23 0 -45 3 -48 9 -3 5 -17 10 -30 10 -13 0 -44
6 -67 14 -82 27 -103 27 -147 -5 -28 -21 -42 -26 -47 -18 -4 7 -3 9 3 6 6 -4
17 0 24 9 12 15 61 43 76 45 5 1 24 9 43 19 47 24 135 49 229 66 101 18 361
12 456 -11z m291 -116 c3 -6 -5 -3 -20 6 -14 10 -26 19 -26 22 0 7 39 -17 46
-28z m-33 -8 c-4 -3 -11 -10 -15 -15 -4 -4 -6 1 -5 12 1 12 6 18 15 15 7 -3
10 -9 5 -12z m-25 -193 c43 -12 92 -33 110 -46 30 -23 31 -26 15 -37 -10 -8
-20 -11 -23 -9 -2 3 2 9 9 13 7 5 9 11 5 14 -14 8 -29 -16 -33 -53 -1 -19 -10
-39 -19 -44 -10 -6 -28 -22 -42 -38 -13 -15 -30 -28 -38 -28 -7 0 -11 -4 -8
-9 3 -5 -1 -14 -10 -21 -8 -7 -13 -19 -10 -27 3 -8 -2 -13 -14 -13 -11 0 -20
-7 -20 -15 0 -8 -4 -15 -10 -15 -5 0 -25 -13 -43 -30 -19 -16 -39 -30 -45 -30
-5 0 -15 -7 -22 -15 -7 -8 -27 -15 -45 -15 -35 0 -51 -20 -32 -39 16 -16 30
-14 24 4 -4 8 -1 17 5 21 7 4 8 3 4 -4 -4 -7 -2 -12 5 -12 7 0 23 -10 35 -21
17 -16 22 -29 17 -49 -3 -16 0 -36 6 -47 9 -14 9 -11 4 17 -3 19 -2 32 2 28 5
-5 17 6 27 22 21 36 24 53 3 26 -8 -11 -15 -16 -15 -10 1 14 30 50 30 36 0 -7
5 -12 11 -12 6 0 9 7 6 14 -4 11 -1 13 10 9 9 -4 14 -2 11 3 -3 5 19 10 49 12
41 2 64 -3 89 -17 28 -16 34 -18 34 -6 0 11 12 15 45 15 l45 0 0 -177 c0 -159
-2 -181 -21 -220 -29 -59 -81 -86 -169 -86 -36 1 -78 6 -93 12 -26 10 -28 14
-22 44 10 44 17 49 49 37 38 -14 99 -13 121 4 10 7 20 28 21 45 2 27 0 30 -13
19 -8 -6 -39 -12 -68 -12 -62 -1 -97 20 -127 74 -10 20 -29 38 -43 41 -21 6
-26 3 -35 -27 -12 -37 -51 -74 -98 -93 -17 -7 -33 -23 -36 -36 -3 -13 -29 -48
-57 -79 -102 -112 -279 -166 -441 -136 -49 10 -65 16 -52 21 10 4 30 5 44 3
19 -3 17 -1 -6 7 -27 10 -33 18 -42 63 -6 28 -13 70 -16 94 -4 38 -2 42 17 41
21 0 21 -1 2 -9 -14 -6 -16 -9 -4 -9 8 -1 24 5 35 13 15 11 16 17 7 27 -7 7
-19 9 -30 4 -10 -5 -26 -7 -35 -6 -10 1 -18 -1 -18 -6 0 -6 -119 -2 -193 6 -9
1 -1 451 9 460 3 3 50 8 105 9 92 4 104 2 154 -23 47 -22 55 -31 61 -61 3 -19
4 -43 1 -54 -3 -11 0 -18 5 -17 6 1 13 -5 15 -13 3 -11 2 -12 -4 -2 -7 9 -17
5 -41 -17 l-31 -30 27 -13 c16 -8 32 -27 39 -48 11 -34 11 -34 10 22 -2 52 -3
55 -19 42 -17 -16 -35 -3 -23 16 8 13 56 5 65 -10 4 -7 6 12 4 42 -3 38 -2 47
5 33 5 -11 10 -38 11 -60 4 -88 18 -90 19 -2 1 81 0 87 -19 87 -11 0 -20 5
-20 10 0 20 -19 10 -23 -12 -2 -13 -4 -4 -4 19 0 38 2 41 14 25 14 -16 14 -16
9 1 -4 13 -1 18 11 15 9 -2 17 -11 19 -21 6 -43 14 -26 14 31 l0 62 55 0 55 0
1 -62 c0 -36 3 -55 7 -45 7 16 14 15 79 -18 64 -32 113 -39 97 -14 -9 16 -97
56 -138 63 l-39 7 5 67 c3 37 12 81 21 99 22 42 90 107 146 140 109 64 306 82
449 41z m-961 -804 c-3 -3 -12 -4 -19 -1 -8 3 -5 6 6 6 11 1 17 -2 13 -5z"/>
<path d="M668 1943 c7 -3 16 -2 19 1 4 3 -2 6 -13 5 -11 0 -14 -3 -6 -6z"/>
<path d="M1545 1930 c-3 -6 1 -7 9 -4 18 7 21 14 7 14 -6 0 -13 -4 -16 -10z"/>
<path d="M554 1280 c2 -28 6 -53 9 -56 3 -3 21 -2 42 2 39 7 69 41 60 66 -8
20 -48 38 -85 38 -29 0 -29 -1 -26 -50z"/>
<path d="M973 1225 c0 -33 2 -45 4 -27 2 18 2 45 0 60 -2 15 -4 0 -4 -33z"/>
<path d="M1069 1272 c-1 -4 -1 -10 -1 -14 1 -3 -6 -12 -15 -19 -14 -12 -15
-11 -8 11 5 19 4 22 -4 14 -7 -7 -9 -22 -5 -38 l6 -27 18 29 c10 17 24 32 31
34 9 3 8 6 -4 11 -9 3 -18 3 -18 -1z"/>
<path d="M760 1199 c0 -5 5 -7 10 -4 6 3 10 8 10 11 0 2 -4 4 -10 4 -5 0 -10
-5 -10 -11z"/>
<path d="M1203 1191 c0 -11 5 -18 9 -15 8 5 36 -45 49 -86 6 -22 7 -20 8 13 1
43 -20 92 -44 101 -23 9 -24 8 -22 -13z"/>
<path d="M1377 1203 c-11 -11 -8 -25 4 -17 8 4 9 0 4 -15 -4 -12 -2 -21 4 -21
6 0 11 14 11 30 0 29 -9 38 -23 23z"/>
<path d="M1164 1178 c-10 -13 -15 -20 -10 -16 5 4 16 2 25 -5 14 -10 14 -10 3
5 -10 13 -10 17 0 21 7 2 10 7 7 11 -3 3 -14 -4 -25 -16z"/>
<path d="M1564 1179 c-24 -26 -26 -111 -4 -133 50 -47 100 -16 100 62 0 82
-52 120 -96 71z m21 -49 c3 -6 -1 -7 -9 -4 -18 7 -21 14 -7 14 6 0 13 -4 16
-10z"/>
<path d="M560 1079 l0 -60 42 3 c54 4 87 42 68 79 -18 33 -29 39 -72 39 l-38
0 0 -61z m110 0 c0 -5 -4 -7 -10 -4 -5 3 -10 -2 -10 -11 0 -10 -3 -15 -6 -11
-9 9 3 37 16 37 5 0 10 -5 10 -11z"/>
<path d="M1410 1098 c0 -9 5 -20 10 -23 13 -8 13 5 0 25 -8 13 -10 13 -10 -2z"/>
</g>
</svg>
